<svg width="512" height="512" viewBox="0 0 512 512" style="color:#28AE9B" xmlns="http://www.w3.org/2000/svg" class="h-full w-full"><rect width="512" height="512" x="0" y="0" rx="30" fill="transparent" stroke="transparent" stroke-width="0" stroke-opacity="100%" paint-order="stroke"></rect><svg width="512px" height="512px" viewBox="0 0 16 16" fill="#28AE9B" x="0" y="0" role="img" style="display:inline-block;vertical-align:middle" xmlns="http://www.w3.org/2000/svg"><g fill="#28AE9B"><path fill="currentColor" d="M3.5 0a.5.5 0 0 1 .5.5V1h8V.5a.5.5 0 0 1 1 0V1h1a2 2 0 0 1 2 2v11a2 2 0 0 1-2 2H2a2 2 0 0 1-2-2V3a2 2 0 0 1 2-2h1V.5a.5.5 0 0 1 .5-.5zm9.954 3H2.545c-.3 0-.545.224-.545.5v1c0 .276.244.5.545.5h10.91c.3 0 .545-.224.545-.5v-1c0-.276-.244-.5-.546-.5zm-2.6 5.854a.5.5 0 0 0-.708-.708L7.5 10.793L6.354 9.646a.5.5 0 1 0-.708.708l1.5 1.5a.5.5 0 0 0 .708 0l3-3z"/></g></svg></svg>