<svg width="512" height="512" viewBox="0 0 512 512" style="color:#28AE9B" xmlns="http://www.w3.org/2000/svg" class="h-full w-full"><rect width="512" height="512" x="0" y="0" rx="30" fill="transparent" stroke="transparent" stroke-width="0" stroke-opacity="100%" paint-order="stroke"></rect><svg width="512px" height="512px" viewBox="0 0 24 24" fill="#28AE9B" x="0" y="0" role="img" style="display:inline-block;vertical-align:middle" xmlns="http://www.w3.org/2000/svg"><g fill="#28AE9B"><path fill="currentColor" d="M21 5H3a1 1 0 0 0-1 1v4h.893c.996 0 1.92.681 2.08 1.664A2.001 2.001 0 0 1 3 14H2v4a1 1 0 0 0 1 1h18a1 1 0 0 0 1-1v-4h-1a2.001 2.001 0 0 1-1.973-2.336c.16-.983 1.084-1.664 2.08-1.664H22V6a1 1 0 0 0-1-1zM11 17H9v-2h2v2zm0-4H9v-2h2v2zm0-4H9V7h2v2z"/></g></svg></svg>