<svg width="512" height="512" viewBox="0 0 512 512" style="color:#28AE9B" xmlns="http://www.w3.org/2000/svg" class="h-full w-full"><rect width="512" height="512" x="0" y="0" rx="30" fill="transparent" stroke="transparent" stroke-width="0" stroke-opacity="100%" paint-order="stroke"></rect><svg width="512px" height="512px" viewBox="0 0 24 24" fill="#28AE9B" x="0" y="0" role="img" style="display:inline-block;vertical-align:middle" xmlns="http://www.w3.org/2000/svg"><g fill="#28AE9B"><path fill="currentColor" fill-rule="evenodd" d="M14.25 2.5a.25.25 0 0 0-.25-.25H7A2.75 2.75 0 0 0 4.25 5v14A2.75 2.75 0 0 0 7 21.75h10A2.75 2.75 0 0 0 19.75 19V9.147a.25.25 0 0 0-.25-.25H15a.75.75 0 0 1-.75-.75V2.5Zm.75 9.75a.75.75 0 0 1 0 1.5H9a.75.75 0 0 1 0-1.5h6Zm0 4a.75.75 0 0 1 0 1.5H9a.75.75 0 0 1 0-1.5h6Z" clip-rule="evenodd"/><path fill="currentColor" d="M15.75 2.824c0-.184.193-.301.336-.186c.121.098.23.212.323.342l3.013 4.197c.068.096-.006.22-.124.22H16a.25.25 0 0 1-.25-.25V2.824Z"/></g></svg></svg>