<svg width="512" height="512" viewBox="0 0 512 512" style="color:#28AE9B" xmlns="http://www.w3.org/2000/svg" class="h-full w-full"><rect width="512" height="512" x="0" y="0" rx="30" fill="transparent" stroke="transparent" stroke-width="0" stroke-opacity="100%" paint-order="stroke"></rect><svg width="512px" height="512px" viewBox="0 0 24 24" fill="#28AE9B" x="0" y="0" role="img" style="display:inline-block;vertical-align:middle" xmlns="http://www.w3.org/2000/svg"><g fill="#28AE9B"><g fill="none" stroke="currentColor" stroke-linecap="round" stroke-linejoin="round" stroke-width="2"><path d="m16.474 5.408l2.118 2.117m-.756-3.982L12.109 9.27a2.118 2.118 0 0 0-.58 1.082L11 13l2.648-.53c.41-.082.786-.283 1.082-.579l5.727-5.727a1.853 1.853 0 1 0-2.621-2.621Z"/><path d="M19 15v3a2 2 0 0 1-2 2H6a2 2 0 0 1-2-2V7a2 2 0 0 1 2-2h3"/></g></g></svg></svg>