<svg width="512" height="512" viewBox="0 0 512 512" style="color:#28AE9B" xmlns="http://www.w3.org/2000/svg" class="h-full w-full"><rect width="512" height="512" x="0" y="0" rx="30" fill="transparent" stroke="transparent" stroke-width="0" stroke-opacity="100%" paint-order="stroke"></rect><svg width="512px" height="512px" viewBox="0 0 48 48" fill="#28AE9B" x="0" y="0" role="img" style="display:inline-block;vertical-align:middle" xmlns="http://www.w3.org/2000/svg"><g fill="#28AE9B"><g fill="none" stroke="currentColor" stroke-linecap="round" stroke-width="4"><path stroke-linejoin="round" d="M8 15V6a2 2 0 0 1 2-2h28a2 2 0 0 1 2 2v36a2 2 0 0 1-2 2H10a2 2 0 0 1-2-2v-9"/><path d="M31 15h3m-6 8h6m-6 8h6"/><path stroke-linejoin="round" d="M4 15h18v18H4zm6 6l6 6m0-6l-6 6"/></g></g></svg></svg>