<svg width="512" height="512" viewBox="0 0 512 512" style="color:#28AE9B" xmlns="http://www.w3.org/2000/svg" class="h-full w-full"><rect width="512" height="512" x="0" y="0" rx="30" fill="transparent" stroke="transparent" stroke-width="0" stroke-opacity="100%" paint-order="stroke"></rect><svg width="512px" height="512px" viewBox="0 0 36 36" fill="#28AE9B" x="0" y="0" role="img" style="display:inline-block;vertical-align:middle" xmlns="http://www.w3.org/2000/svg"><g fill="#28AE9B"><path fill="currentColor" d="M17 22a1 1 0 0 1 1-1h8V6a2 2 0 0 0-2-2H10.87L4 10.86V30a2 2 0 0 0 2 2h18a2 2 0 0 0 2-2v-7h-8a1 1 0 0 1-1-1Zm-5-10H6v-.32L11.69 6H12Z" class="clr-i-solid clr-i-solid-path-1"/><path fill="currentColor" d="M29.32 16.35a1 1 0 0 0-1.41 1.41L31.16 21H26v2h5.19l-3.28 3.28a1 1 0 1 0 1.41 1.41L35 22Z" class="clr-i-solid clr-i-solid-path-2"/><path fill="none" d="M0 0h36v36H0z"/></g></svg></svg>