<svg width="512" height="512" viewBox="0 0 512 512" style="color:#28AE9B" xmlns="http://www.w3.org/2000/svg" class="h-full w-full"><rect width="512" height="512" x="0" y="0" rx="30" fill="transparent" stroke="transparent" stroke-width="0" stroke-opacity="100%" paint-order="stroke"></rect><svg width="512px" height="512px" viewBox="0 0 1024 1024" fill="#28AE9B" x="0" y="0" role="img" style="display:inline-block;vertical-align:middle" xmlns="http://www.w3.org/2000/svg"><g fill="#28AE9B"><path fill="currentColor" d="M946.5 505L534.6 93.4a31.93 31.93 0 0 0-45.2 0L77.5 505c-12 12-18.8 28.3-18.8 45.3c0 35.3 28.7 64 64 64h43.4V908c0 17.7 14.3 32 32 32H448V716h112v224h265.9c17.7 0 32-14.3 32-32V614.3h43.4c17 0 33.3-6.7 45.3-18.8c24.9-25 24.9-65.5-.1-90.5z"/></g></svg></svg>