<svg width="512" height="512" viewBox="0 0 512 512" style="color:#28AE9B" xmlns="http://www.w3.org/2000/svg" class="h-full w-full"><rect width="512" height="512" x="0" y="0" rx="30" fill="transparent" stroke="transparent" stroke-width="0" stroke-opacity="100%" paint-order="stroke"></rect><svg width="512px" height="512px" viewBox="0 0 36 36" fill="#28AE9B" x="0" y="0" role="img" style="display:inline-block;vertical-align:middle" xmlns="http://www.w3.org/2000/svg"><g fill="#28AE9B"><path fill="currentColor" d="M3 21a1 1 0 1 0 0 2h5v-2Z" class="clr-i-solid clr-i-solid-path-1"/><path fill="currentColor" d="M28 4H14.87L8 10.86V21h7.2l-3.25-3.25a1 1 0 0 1 1.41-1.41L19 22l-5.68 5.68a1 1 0 0 1-1.41-1.41L15.23 23H8v7a2 2 0 0 0 2 2h18a2 2 0 0 0 2-2V6a2 2 0 0 0-2-2Zm-12 8h-6v-.32L15.69 6H16Z" class="clr-i-solid clr-i-solid-path-2"/><path fill="none" d="M0 0h36v36H0z"/></g></svg></svg>