<svg width="512" height="512" viewBox="0 0 512 512" style="color:#28AE9B" xmlns="http://www.w3.org/2000/svg" class="h-full w-full"><rect width="512" height="512" x="0" y="0" rx="30" fill="transparent" stroke="transparent" stroke-width="0" stroke-opacity="100%" paint-order="stroke"></rect><svg width="512px" height="512px" viewBox="0 0 24 24" fill="#28AE9B" x="0" y="0" role="img" style="display:inline-block;vertical-align:middle" xmlns="http://www.w3.org/2000/svg"><g fill="#28AE9B"><g fill="none" stroke="currentColor" stroke-linecap="round" stroke-linejoin="round" stroke-width="1.5"><path d="M8.6 16.4a4.6 4.6 0 0 1-6.5-6.5l7.8-7.8a4.6 4.6 0 0 1 6.5 6.5M5.999 5.999l4.25 4.25"/><path d="M23.25 15.75a7.669 7.669 0 0 1-6 7.5a7.669 7.669 0 0 1-6-7.5V13.5a1.5 1.5 0 0 1 1.5-1.5h9a1.5 1.5 0 0 1 1.5 1.5v2.25Zm-6-.75v4.5M15 17.25h4.5"/></g></g></svg></svg>