<svg width="512" height="512" viewBox="0 0 512 512" style="color:#28AE9B" xmlns="http://www.w3.org/2000/svg" class="h-full w-full"><rect width="512" height="512" x="0" y="0" rx="30" fill="transparent" stroke="transparent" stroke-width="0" stroke-opacity="100%" paint-order="stroke"></rect><svg width="512px" height="512px" viewBox="0 0 16 16" fill="#28AE9B" x="0" y="0" role="img" style="display:inline-block;vertical-align:middle" xmlns="http://www.w3.org/2000/svg"><g fill="#28AE9B"><g fill="currentColor"><path d="M12.5 16a3.5 3.5 0 1 0 0-7a3.5 3.5 0 0 0 0 7Zm.5-5v1h1a.5.5 0 0 1 0 1h-1v1a.5.5 0 0 1-1 0v-1h-1a.5.5 0 0 1 0-1h1v-1a.5.5 0 0 1 1 0Zm-2-6a3 3 0 1 1-6 0a3 3 0 0 1 6 0Z"/><path d="M2 13c0 1 1 1 1 1h5.256A4.493 4.493 0 0 1 8 12.5a4.49 4.49 0 0 1 1.544-3.393C9.077 9.038 8.564 9 8 9c-5 0-6 3-6 4Z"/></g></g></svg></svg>