<svg width="512" height="512" viewBox="0 0 512 512" style="color:#28AE9B" xmlns="http://www.w3.org/2000/svg" class="h-full w-full"><rect width="512" height="512" x="0" y="0" rx="30" fill="transparent" stroke="transparent" stroke-width="0" stroke-opacity="100%" paint-order="stroke"></rect><svg width="512px" height="512px" viewBox="0 0 24 24" fill="#28AE9B" x="0" y="0" role="img" style="display:inline-block;vertical-align:middle" xmlns="http://www.w3.org/2000/svg"><g fill="#28AE9B"><path fill="currentColor" d="M19 3h-4.18C14.4 1.84 13.3 1 12 1c-1.3 0-2.4.84-2.82 2H5c-1.1 0-2 .9-2 2v14c0 1.1.9 2 2 2h14c1.1 0 2-.9 2-2V5c0-1.1-.9-2-2-2zm-7 0c.55 0 1 .45 1 1s-.45 1-1 1s-1-.45-1-1s.45-1 1-1zm4 12h-4v3l-5-5l5-5v3h4v4z"/></g></svg></svg>