<svg width="512" height="512" viewBox="0 0 512 512" style="color:#28AE9B" xmlns="http://www.w3.org/2000/svg" class="h-full w-full"><rect width="512" height="512" x="0" y="0" rx="30" fill="transparent" stroke="transparent" stroke-width="0" stroke-opacity="100%" paint-order="stroke"></rect><svg width="512px" height="512px" viewBox="0 0 24 24" fill="#28AE9B" x="0" y="0" role="img" style="display:inline-block;vertical-align:middle" xmlns="http://www.w3.org/2000/svg"><g fill="#28AE9B"><path fill="currentColor" d="M7.25 7.6c0 .966.784 1.75 1.75 1.75h6a1.75 1.75 0 0 0 1.75-1.75V4.276c0-.152.124-.276.276-.276a.5.5 0 0 1 .38.174l2.963 3.455a2.5 2.5 0 0 1 .6 1.725l-.342 8.744A2.5 2.5 0 0 1 18.13 20.5h-.379a.5.5 0 0 1-.5-.5v-5a1.75 1.75 0 0 0-1.75-1.75h-7A1.75 1.75 0 0 0 6.75 15v5a.5.5 0 0 1-.5.5h-.137a2.392 2.392 0 0 1-2.373-2.089a47.81 47.81 0 0 1-.063-11.625l.06-.52A2.564 2.564 0 0 1 6.284 4h.466a.5.5 0 0 1 .5.5v3.1Z"/><path fill="currentColor" d="M8.25 20a.5.5 0 0 0 .5.5h6.5a.5.5 0 0 0 .5-.5v-5a.25.25 0 0 0-.25-.25h-7a.25.25 0 0 0-.25.25v5Zm7-15.5a.5.5 0 0 0-.5-.5h-5.5a.5.5 0 0 0-.5.5v3.1c0 .138.112.25.25.25h6a.25.25 0 0 0 .25-.25V4.5Z"/></g></svg></svg>