<svg width="512" height="512" viewBox="0 0 512 512" style="color:#ffffff" xmlns="http://www.w3.org/2000/svg" class="h-full w-full"><rect width="512" height="512" x="0" y="0" rx="30" fill="transparent" stroke="transparent" stroke-width="0" stroke-opacity="100%" paint-order="stroke"></rect><svg width="512px" height="512px" viewBox="0 0 24 24" fill="#ffffff" x="0" y="0" role="img" style="display:inline-block;vertical-align:middle" xmlns="http://www.w3.org/2000/svg"><g fill="#ffffff"><path fill="currentColor" d="M10 18a7.952 7.952 0 0 0 4.897-1.688l4.396 4.396l1.414-1.414l-4.396-4.396A7.952 7.952 0 0 0 18 10c0-4.411-3.589-8-8-8s-8 3.589-8 8s3.589 8 8 8zm0-14c3.309 0 6 2.691 6 6s-2.691 6-6 6s-6-2.691-6-6s2.691-6 6-6z"/><path fill="currentColor" d="M11.412 8.586c.379.38.588.882.588 1.414h2a3.977 3.977 0 0 0-1.174-2.828c-1.514-1.512-4.139-1.512-5.652 0l1.412 1.416c.76-.758 2.07-.756 2.826-.002z"/></g></svg></svg>