<svg width="512" height="512" viewBox="0 0 512 512" style="color:#28AE9B" xmlns="http://www.w3.org/2000/svg" class="h-full w-full"><rect width="512" height="512" x="0" y="0" rx="30" fill="transparent" stroke="transparent" stroke-width="0" stroke-opacity="100%" paint-order="stroke"></rect><svg width="512px" height="512px" viewBox="0 0 16 16" fill="#28AE9B" x="0" y="0" role="img" style="display:inline-block;vertical-align:middle" xmlns="http://www.w3.org/2000/svg"><g fill="#28AE9B"><path fill="currentColor" d="M12 6V0H4v6H0v7h16V6h-4zm-5 6H1V7h2v1h2V7h2v5zM5 6V1h2v1h2V1h2v5H5zm10 6H9V7h2v1h2V7h2v5zM0 16h3v-1h10v1h3v-2H0v2z"/></g></svg></svg>