<svg width="512" height="512" viewBox="0 0 512 512" style="color:#28AE9B" xmlns="http://www.w3.org/2000/svg" class="h-full w-full"><rect width="512" height="512" x="0" y="0" rx="30" fill="transparent" stroke="transparent" stroke-width="0" stroke-opacity="100%" paint-order="stroke"></rect><svg width="512px" height="512px" viewBox="0 0 24 24" fill="#28AE9B" x="0" y="0" role="img" style="display:inline-block;vertical-align:middle" xmlns="http://www.w3.org/2000/svg"><g fill="#28AE9B"><path d="M17.988 22a2 2 0 0 0 2-2V4a2 2 0 0 0-2-2H6a2 2 0 0 0-2 2v16a2 2 0 0 0 2 2h11.988zM9 5h6v2H9V5zm5.25 6.25A2.26 2.26 0 0 1 12 13.501c-1.235 0-2.25-1.015-2.25-2.251S10.765 9 12 9a2.259 2.259 0 0 1 2.25 2.25zM7.5 18.188c0-1.664 2.028-3.375 4.5-3.375s4.5 1.711 4.5 3.375v.563h-9v-.563z" fill="currentColor"/></g></svg></svg>