<?xml version="1.0" encoding="utf-8"?>
<!-- Generator: Adobe Illustrator 25.0.0, SVG Export Plug-In . SVG Version: 6.00 Build 0)  -->
<svg version="1.1" id="Layer_1" xmlns="http://www.w3.org/2000/svg" xmlns:xlink="http://www.w3.org/1999/xlink" x="0px" y="0px"
	 viewBox="0 0 512 512" style="enable-background:new 0 0 512 512;" xml:space="preserve">
<style type="text/css">
	.st0{fill:#FFFFFF;}
</style>
<g>
	<path class="st0" d="M145.9,230.4c10.2-51.2,56.3-89.6,110.1-89.6c38.4,0,69.1,17.9,89.6,46.1l43.5-51.2
		C358.4,99.8,309.8,76.8,256,76.8c-89.6,0-163.8,66.6-176.6,153.6H25.6l89.6,102.4l89.6-102.4H145.9z M396.8,179.2l-89.6,102.4h58.9
		c-12.8,51.2-56.3,89.6-110.1,89.6c-38.4,0-69.1-17.9-89.6-46.1l-43.5,48.6c30.7,38.4,79.4,61.4,133.1,61.4
		c89.6,0,163.8-66.6,176.6-153.6h53.8L396.8,179.2z"/>
</g>
</svg>
