<svg width="512" height="512" viewBox="0 0 512 512" style="color:#28AE9B" xmlns="http://www.w3.org/2000/svg" class="h-full w-full"><rect width="512" height="512" x="0" y="0" rx="30" fill="transparent" stroke="transparent" stroke-width="0" stroke-opacity="100%" paint-order="stroke"></rect><svg width="512px" height="512px" viewBox="0 0 24 24" fill="#28AE9B" x="0" y="0" role="img" style="display:inline-block;vertical-align:middle" xmlns="http://www.w3.org/2000/svg"><g fill="#28AE9B"><path fill="currentColor" d="M4.25 4A2.25 2.25 0 0 0 2 6.25v2.5A2.25 2.25 0 0 0 4.25 11h2.5A2.25 2.25 0 0 0 9 8.75v-2.5A2.25 2.25 0 0 0 6.75 4h-2.5Zm7 1a.75.75 0 0 0 0 1.5h10a.75.75 0 0 0 0-1.5h-10Zm0 3a.75.75 0 0 0 0 1.5h7a.75.75 0 0 0 0-1.5h-7Zm-7 5A2.25 2.25 0 0 0 2 15.25v2.5A2.25 2.25 0 0 0 4.25 20h2.5A2.25 2.25 0 0 0 9 17.75v-2.5A2.25 2.25 0 0 0 6.75 13h-2.5Zm7 1a.75.75 0 0 0 0 1.5h10a.75.75 0 0 0 0-1.5h-10Zm0 3a.75.75 0 0 0 0 1.5h7a.75.75 0 0 0 0-1.5h-7Z"/></g></svg></svg>